<svg id="muell" xmlns="http://www.w3.org/2000/svg" viewBox="0 0 250 250"><title>Zeichenfläche 1</title><path d="M49.17,80.28c-8.58-2.85-13.7-8.47-14.77-17.13-1-8.35,2.36-14.95,9.42-19.55,3.61-2.35,7.72-3,12-3h25.4c0-1.73.09-3.27,0-4.8-.94-13.58,10.22-22.91,22.34-22.52,14.81.47,29.65.1,44.48.11,12.34,0,21.21,8.9,21.28,21.27,0,1.9,0,3.79,0,5.94,3.25,0,6.23,0,9.21,0,6.74.07,13.5-.09,20.23.33,8.26.5,15.78,8.24,17.14,16.08a20.56,20.56,0,0,1-14.58,23.2v2.93q0,63.1,0,126.22c0,9.34-3.6,17.18-11.1,22.95a25,25,0,0,1-15.62,5.06q-49.23,0-98.48,0A26.41,26.41,0,0,1,49.8,215.48a46.8,46.8,0,0,1-.6-8.2q-.06-62,0-124Zm10.68.34c-.07.59-.14.92-.14,1.25q0,64.37.06,128.73c0,9.35,7.33,16.3,16.66,16.31q48.75,0,97.49,0a16.41,16.41,0,0,0,3-.21c8.48-1.53,13.84-8.42,13.85-17.85q0-62.86,0-125.73c0-.8-.08-1.61-.13-2.5ZM125.28,70v0q35.61,0,71.22,0c4.78,0,8.4-3.54,8.92-8.4a9.21,9.21,0,0,0-6.89-9.95,21.2,21.2,0,0,0-4.72-.37q-68.59,0-137.2,0a27.79,27.79,0,0,0-4,.22,9.18,9.18,0,0,0-7.55,11c1,4.69,4.48,7.5,9.47,7.5Q89.92,70,125.28,70ZM91.78,40.42H158.7c0-2.61.16-5,0-7.41a9.42,9.42,0,0,0-7.7-8.67,16,16,0,0,0-3.45-.4q-22.35,0-44.71,0c-6,0-10.44,3.32-11,8.41A77.45,77.45,0,0,0,91.78,40.42Z"/><path d="M99.52,149.46q0,24,0,48c0,4.46-2,6.84-5.58,6.66a4.93,4.93,0,0,1-4.73-4.05,20.16,20.16,0,0,1-.24-3.48q0-47.36,0-94.73c0-4.89,1.7-7.28,5.21-7.34s5.34,2.41,5.34,7.46Q99.54,125.72,99.52,149.46Z"/><path d="M161.35,149.28q0,24.38,0,48.74c0,3.92-2,6.18-5.34,6.11a5.1,5.1,0,0,1-5-4.38,12.82,12.82,0,0,1-.16-2.48q0-48,0-96c0-3.81,1.13-5.69,3.84-6.49A5.05,5.05,0,0,1,161.26,99a23.08,23.08,0,0,1,.09,3Q161.37,125.67,161.35,149.28Z"/><path d="M130.42,147.26q0,19.78,0,39.57c0,3.39-1.74,5.2-5,5.32-2.53.1-4.55-1.05-5.22-3.07a8,8,0,0,1-.34-2.43q0-39.36,0-78.72c0-3.32,1.1-4.81,3.94-5.46,3-.7,6,.81,6.45,3.39a14.67,14.67,0,0,1,.14,2.65Q130.44,127.89,130.42,147.26Z"/></svg>