<svg id="edit" xmlns="http://www.w3.org/2000/svg" viewBox="0 0 250 250"><title>1Zeichenfläche 1</title><path d="M119.38,237.47c-25,0-49.94-.06-74.91,0-8.91,0-16.47-2.79-22.36-9.56a25.4,25.4,0,0,1-6.58-17q-.1-72.33,0-144.67c0-12.1,9.88-23.23,22.14-25.44a23.89,23.89,0,0,1,4.12-.49c16.32,0,62.84,0,79.16,0,2.94,0,4.81,1.28,5.69,3.72a4.68,4.68,0,0,1-1.52,5.72,9.35,9.35,0,0,1-5,1.53c-6.53.17-43.26.06-49.79.08-9.47,0-18.94-.21-28.39.16-9.26.36-15.59,7.41-15.6,16.71q0,45.52,0,91.06c0,16.65,0,33.29,0,49.94,0,8.78,5.19,15.27,13.33,16.89a19.33,19.33,0,0,0,3.65.28q76,0,152,0c8.49,0,14.93-5,16.68-13a22.5,22.5,0,0,0,.33-4.86c0-15.26,0-60.73,0-76,0-2.61.58-4.85,3.18-6.08a5.29,5.29,0,0,1,7.55,3.41,11.74,11.74,0,0,1,.34,2.9c0,15.34.07,60.89,0,76.23-.06,13.91-8.39,24.59-21.65,27.67a34.78,34.78,0,0,1-7.77.66Q156.71,237.51,119.38,237.47Z"/><path d="M203.86,19.22a23.91,23.91,0,0,1,16.81,6.68c2,1.9,4,3.88,5.93,5.83,11.05,11,11.07,25.77,0,36.83-30.05,30.06-60.21,60-90.09,90.23A35,35,0,0,1,119.06,169c-12.42,2.94-24.65,6.67-37,10-5.07,1.37-8.51-2-7.13-7q6.21-22.71,12.6-45.37a7.87,7.87,0,0,1,2-3.26Q137.8,75,186.1,26.72A24.48,24.48,0,0,1,203.86,19.22Zm2.07,54.12L180.84,48.19l-79.33,79.22,25,25.18Zm8.51-7.93c2.18-2.34,4.63-4.62,6.68-7.22a13.31,13.31,0,0,0-.8-17.26,104.14,104.14,0,0,0-7.48-7.38,13.18,13.18,0,0,0-12.29-3c-5.45,1.24-8.15,5.87-11.8,9.09C197.36,48.25,205.79,56.72,214.44,65.41ZM87.92,166.05l27.67-7.64-20-19.94Z"/></svg>